<svg width="26" height="22" viewBox="0 0 26 22" fill="none" xmlns="http://www.w3.org/2000/svg">
<path d="M12.9999 20.4454C7.80839 20.4454 3.6 16.237 3.6 11.0456C3.6 5.85406 7.80841 1.64541 12.9999 1.64541C18.1916 1.64541 22.4 5.85407 22.4 11.0456C22.4 16.237 18.1916 20.4454 12.9999 20.4454Z" stroke="black" stroke-width="1.2"/>
<path fill-rule="evenodd" clip-rule="evenodd" d="M10.5491 9.0828C10.5491 8.59657 10.943 8.20264 11.4292 8.20264C11.9155 8.20264 12.3094 8.59657 12.3094 9.0828C12.3094 9.56902 11.9155 9.96296 11.4292 9.96296C10.943 9.96296 10.5491 9.56902 10.5491 9.0828Z" fill="black"/>
<path fill-rule="evenodd" clip-rule="evenodd" d="M14.8745 9.96296C14.3883 9.96296 13.9944 9.56902 13.9944 9.0828C13.9944 8.59657 14.3883 8.20264 14.8745 8.20264C15.3608 8.20264 15.7547 8.59657 15.7547 9.0828C15.7547 9.56902 15.3608 9.96296 14.8745 9.96296Z" fill="black"/>
<path d="M15.5141 11.3584C15.5141 12.7013 14.4256 13.7898 13.0827 13.7898C11.7399 13.7898 10.6511 12.7013 10.6511 11.3584" stroke="black" stroke-width="1.2"/>
<path fill-rule="evenodd" clip-rule="evenodd" d="M12.9999 21.4852C7.23194 21.4852 2.55994 16.8132 2.55994 11.0452C2.55994 9.2122 3.03296 7.48821 3.86389 5.99121C2.83191 8.23721 5.8219 12.2282 10.6949 15.0402C15.6158 17.8792 20.6169 18.4572 21.981 16.3672C20.1669 19.4332 16.8219 21.4852 12.9999 21.4852Z" fill="black"/>
<path d="M9.81347 16.5646L9.81344 16.5646C6.82823 14.8411 4.43221 12.6944 2.98056 10.5931C1.5561 8.53117 0.92721 6.32723 1.90187 4.63919L9.81347 16.5646ZM9.81347 16.5646C12.7991 18.288 15.8564 19.29 18.402 19.4968M9.81347 16.5646L18.402 19.4968M18.402 19.4968C20.9001 19.6998 23.1232 19.1426 24.098 17.454M18.402 19.4968L24.098 17.454M24.098 17.454C25.0727 15.7659 24.4434 13.5619 23.0187 11.5M24.098 17.454L23.0187 11.5M23.0187 11.5C21.5668 9.39876 19.1705 7.252 16.1853 5.52855M23.0187 11.5L16.1853 5.52855M16.1853 5.52855C13.2002 3.80511 10.1429 2.8034 7.59729 2.59671M16.1853 5.52855L7.59729 2.59671M7.59729 2.59671C5.09943 2.3939 2.8762 2.95094 1.90196 4.63904L7.59729 2.59671Z" fill="white" stroke="black" stroke-width="1.13396" stroke-linejoin="round"/>
<path fill-rule="evenodd" clip-rule="evenodd" d="M22.1139 16.1405C22.0719 16.2155 22.0269 16.2955 21.981 16.3675C20.6169 18.4575 15.6159 17.8795 10.695 15.0405C5.8219 12.2285 2.83191 8.23746 3.8639 5.99146C3.92895 5.87846 3.99292 5.76546 4.05689 5.65548C5.88684 2.64347 9.21692 0.605469 12.9999 0.605469C18.7649 0.605469 23.4399 5.28146 23.4399 11.0455C23.4399 12.8975 22.9598 14.6365 22.1139 16.1405Z" fill="black"/>
<path fill-rule="evenodd" clip-rule="evenodd" d="M4.05688 5.65576C3.99292 5.76576 3.92896 5.87875 3.86389 5.99176C3.89087 5.93576 3.9209 5.87875 3.95093 5.82176C3.98486 5.76576 4.01892 5.70876 4.05688 5.65576Z" fill="white"/>
<path fill-rule="evenodd" clip-rule="evenodd" d="M22.0449 16.2694C22.0908 16.1974 22.0679 16.2234 22.1099 16.1484C22.0909 16.1894 22.0679 16.2274 22.0449 16.2694Z" fill="white"/>
<path fill-rule="evenodd" clip-rule="evenodd" d="M12.1534 5.96045C13.4138 5.96045 14.4355 7.29905 14.4355 8.95028C14.4355 10.6015 13.4138 11.9401 12.1534 11.9401C10.8931 11.9401 9.87134 10.6015 9.87134 8.95028C9.87134 7.29905 10.8931 5.96045 12.1534 5.96045Z" fill="white"/>
<path fill-rule="evenodd" clip-rule="evenodd" d="M12.9049 6.80225C13.4605 6.80225 13.911 7.46704 13.911 8.28711C13.911 9.10718 13.4605 9.77198 12.9049 9.77198C12.3492 9.77198 11.8987 9.10718 11.8987 8.28711C11.8987 7.46704 12.3492 6.80225 12.9049 6.80225Z" fill="black"/>
<path fill-rule="evenodd" clip-rule="evenodd" d="M16.5787 5.93896C17.8391 5.93896 18.8608 7.27756 18.8608 8.9288C18.8608 10.58 17.8391 11.9186 16.5787 11.9186C15.3184 11.9186 14.2966 10.58 14.2966 8.9288C14.2966 7.27756 15.3184 5.93896 16.5787 5.93896Z" fill="white"/>
<path fill-rule="evenodd" clip-rule="evenodd" d="M17.3301 6.77832C17.8858 6.77832 18.3363 7.44312 18.3363 8.26319C18.3363 9.08326 17.8858 9.74805 17.3301 9.74805C16.7745 9.74805 16.324 9.08326 16.324 8.26319C16.324 7.44312 16.7745 6.77832 17.3301 6.77832Z" fill="black"/>
</svg>
