<svg width="39" height="33" viewBox="0 0 39 33" fill="none" xmlns="http://www.w3.org/2000/svg">
<path d="M16.8106 27.499C9.70594 27.499 3.94668 21.7398 3.94668 14.6351C3.94668 7.53051 9.70596 1.7709 16.8106 1.7709C23.9155 1.7709 29.6748 7.53052 29.6748 14.6351C29.6748 21.7398 23.9156 27.499 16.8106 27.499Z" stroke="black" stroke-width="1.2"/>
<path fill-rule="evenodd" clip-rule="evenodd" d="M13.5107 11.9917C13.5107 11.337 14.0411 10.8066 14.6958 10.8066C15.3504 10.8066 15.8808 11.337 15.8808 11.9917C15.8808 12.6463 15.3504 13.1767 14.6958 13.1767C14.0411 13.1767 13.5107 12.6463 13.5107 11.9917Z" fill="black"/>
<path fill-rule="evenodd" clip-rule="evenodd" d="M19.3345 13.1767C18.6798 13.1767 18.1494 12.6463 18.1494 11.9917C18.1494 11.337 18.6798 10.8066 19.3345 10.8066C19.9891 10.8066 20.5195 11.337 20.5195 11.9917C20.5195 12.6463 19.9891 13.1767 19.3345 13.1767Z" fill="black"/>
<path d="M20.195 15.0566C20.195 16.8647 18.7295 18.3302 16.9214 18.3302C15.1134 18.3302 13.6475 16.8647 13.6475 15.0566" stroke="black" stroke-width="1.2"/>
<path fill-rule="evenodd" clip-rule="evenodd" d="M16.8102 28.6913C9.04418 28.6913 2.75378 22.4009 2.75378 14.6348C2.75378 12.1668 3.39062 9.84563 4.50952 7.83006C3.12012 10.8541 7.14564 16.2276 13.707 20.0137C20.3325 23.8361 27.0659 24.6144 28.9023 21.8004C26.4602 25.9285 21.956 28.6913 16.8102 28.6913Z" fill="black"/>
<path d="M12.6182 21.8958L12.6181 21.8958C8.61832 19.5865 5.41627 16.7145 3.48164 13.9142C1.57421 11.1532 0.785397 8.27643 2.03775 6.10758L12.6182 21.8958ZM12.6182 21.8958C16.6186 24.205 20.7071 25.5424 24.0996 25.8181M12.6182 21.8958L24.0996 25.8181M24.0996 25.8181C27.4446 26.0898 30.3304 25.3348 31.5828 23.1652M24.0996 25.8181L31.5828 23.1652M31.5828 23.1652C32.835 20.9963 32.0457 18.1195 30.1379 15.3585M31.5828 23.1652L30.1379 15.3585M30.1379 15.3585C28.2029 12.5582 25.0006 9.68616 21.0008 7.37696M30.1379 15.3585L21.0008 7.37696M21.0008 7.37696C17.0011 5.06775 12.9127 3.73063 9.52019 3.45518M21.0008 7.37696L9.52019 3.45518M9.52019 3.45518C6.17546 3.1836 3.28965 3.93854 2.03782 6.10745L9.52019 3.45518Z" fill="white" stroke="black" stroke-width="1.13396" stroke-linejoin="round"/>
<path fill-rule="evenodd" clip-rule="evenodd" d="M29.0814 21.4945C29.0249 21.5955 28.964 21.7032 28.9023 21.8002C27.0659 24.6141 20.3324 23.8359 13.7069 20.0134C7.14538 16.2274 3.11987 10.8539 4.50915 7.82986C4.59706 7.67771 4.68297 7.52557 4.76928 7.37748C7.23329 3.32212 11.7166 0.578125 16.8099 0.578125C24.5722 0.578125 30.8667 6.87388 30.8667 14.6346C30.8667 17.1281 30.2202 19.4695 29.0814 21.4945Z" fill="black"/>
<path fill-rule="evenodd" clip-rule="evenodd" d="M4.77002 7.37795C4.68347 7.52603 4.59741 7.67821 4.50989 7.83032C4.54626 7.75493 4.58655 7.67821 4.62708 7.60144C4.67273 7.52603 4.71851 7.44929 4.77002 7.37795Z" fill="white"/>
<path fill-rule="evenodd" clip-rule="evenodd" d="M28.9886 21.6688C28.9642 21.7145 28.9332 21.7603 28.9023 21.8007C28.9642 21.7038 29.0194 21.6068 29.0759 21.5059C29.0503 21.5611 29.0194 21.6122 28.9886 21.6688Z" fill="white"/>
<path fill-rule="evenodd" clip-rule="evenodd" d="M15.6703 7.78809C17.3673 7.78809 18.7429 9.59038 18.7429 11.8136C18.7429 14.0369 17.3673 15.8391 15.6703 15.8391C13.9733 15.8391 12.5977 14.0369 12.5977 11.8136C12.5977 9.59038 13.9733 7.78809 15.6703 7.78809Z" fill="white"/>
<path fill-rule="evenodd" clip-rule="evenodd" d="M16.6819 8.92188C17.43 8.92188 18.0366 9.81696 18.0366 10.9211C18.0366 12.0253 17.43 12.9203 16.6819 12.9203C15.9337 12.9203 15.3271 12.0253 15.3271 10.9211C15.3271 9.81696 15.9337 8.92188 16.6819 8.92188Z" fill="black"/>
<path fill-rule="evenodd" clip-rule="evenodd" d="M21.6283 7.75977C23.3253 7.75977 24.7009 9.56206 24.7009 11.7853C24.7009 14.0085 23.3253 15.8108 21.6283 15.8108C19.9313 15.8108 18.5557 14.0085 18.5557 11.7853C18.5557 9.56206 19.9313 7.75977 21.6283 7.75977Z" fill="white"/>
<path fill-rule="evenodd" clip-rule="evenodd" d="M22.6408 8.88965C23.389 8.88965 23.9956 9.78474 23.9956 10.8889C23.9956 11.993 23.389 12.8881 22.6408 12.8881C21.8927 12.8881 21.2861 11.993 21.2861 10.8889C21.2861 9.78474 21.8927 8.88965 22.6408 8.88965Z" fill="black"/>
<path d="M20.3516 26.5444C20.4053 26.3782 20.4974 26.2275 20.6214 26.1025C20.6216 26.1023 20.6218 26.1021 20.622 26.1019L29.9074 16.8178L29.9075 16.8177L32.0161 14.7078C32.0162 14.7078 32.0162 14.7077 32.0162 14.7077C33.2773 13.4478 35.3205 13.4477 36.5817 14.7075C37.8419 15.9687 37.8419 18.0122 36.5817 19.2734L36.4366 19.4186L36.4365 19.4187L34.4719 21.3821L34.4718 21.3822L25.1814 30.6737C25.0598 30.7954 24.9121 30.8866 24.7495 30.9402L24.749 30.9404L20.8172 32.2427C19.7454 32.5975 18.7251 31.5851 19.0716 30.511L20.3516 26.5444Z" fill="white" stroke="black" stroke-linecap="round" stroke-linejoin="round"/>
<path d="M22.7491 28.5752L33.5175 17.6982" stroke="black" stroke-linecap="round" stroke-linejoin="round"/>
<path fill-rule="evenodd" clip-rule="evenodd" d="M20.7502 26.5742L24.7502 30.5742L20.7502 26.5742Z" fill="white"/>
<path d="M20.7502 26.5742L24.7502 30.5742" stroke="black" stroke-linecap="round" stroke-linejoin="round"/>
<path d="M31.5919 15.7109L35.7496 19.5742" stroke="black" stroke-linecap="round" stroke-linejoin="round"/>
<path d="M19.0137 32.0771H11.5" stroke="black" stroke-linecap="round"/>
</svg>
