<?xml version="1.0" encoding="UTF-8"?><svg id="a" xmlns="http://www.w3.org/2000/svg" viewBox="0 0 45.92 45.92"><defs><style>.b{fill:#fff;}.c{fill:#f24ef1;}.d{fill:#ff8ced;}.e{fill:none;stroke:#000;stroke-linecap:round;stroke-linejoin:round;stroke-width:1.5px;}</style></defs><g><g><circle class="d" cx="14.58" cy="14.29" r="12.14"/><circle class="d" cx="31.39" cy="14.34" r="12.14"/></g><g><circle class="d" cx="14.53" cy="31.57" r="12.14"/><circle class="d" cx="31.33" cy="31.63" r="12.14"/></g></g><ellipse class="b" cx="19.54" cy="18.51" rx="4.3" ry="2.96" transform="translate(.97 37.99) rotate(-89.82)"/><ellipse cx="20.71" cy="17.31" rx="1.93" ry="1.31" transform="translate(3.34 37.96) rotate(-89.82)"/><ellipse class="b" cx="25.11" cy="18.44" rx="4.3" ry="2.96" transform="translate(6.59 43.49) rotate(-89.82)"/><ellipse cx="26.36" cy="17.46" rx="1.93" ry="1.31" transform="translate(8.81 43.77) rotate(-89.82)"/><ellipse class="c" cx="14.75" cy="23.1" rx="1.65" ry="2.91" transform="translate(-8.4 37.78) rotate(-89.82)"/><path class="e" d="M20.25,24.75c.42,.76,1.34,1.11,2.21,1.12,1.17,.02,2.33-.5,3.1-1.38"/><circle cx="22.53" cy="21.24" r="1.35" transform="translate(1.21 43.71) rotate(-89.82)"/><ellipse class="c" cx="30.58" cy="22.88" rx="1.65" ry="2.91" transform="translate(7.61 53.39) rotate(-89.82)"/></svg>