<?xml version="1.0" encoding="UTF-8"?><svg id="a" xmlns="http://www.w3.org/2000/svg" viewBox="0 0 45.92 45.92"><defs><style>.b{fill:#fc6d3a;}.c{fill:#ff7d45;}.d{fill:none;stroke:#000;stroke-linecap:round;stroke-linejoin:round;stroke-width:1.23px;}</style></defs><path class="c" d="M46.25,23.03c-.01,3.83-5.31,6.25-7.11,9.33s-1.4,8.97-4.6,10.8-7.82-1.48-11.64-1.49c-3.83-.01-8.57,3.22-11.65,1.42-3.18-1.85-2.7-7.63-4.53-10.83S-.34,26.71-.33,22.89s5.31-6.25,7.11-9.33,1.4-8.97,4.6-10.8,7.82,1.48,11.64,1.49c3.83,.01,8.57-3.22,11.65-1.42s2.7,7.63,4.53,10.83,7.06,5.55,7.05,9.38Z"/><circle class="b" cx="32.9" cy="17.93" r="2.77"/><circle class="b" cx="12.44" cy="18.49" r="2.77"/><g><ellipse cx="22.26" cy="17.29" rx="1.28" ry="1.35" transform="translate(4.91 39.5) rotate(-89.82)"/><path class="d" d="M16.47,15.29c.01-.38,.13-.77,.32-1.08,.89-1.48,2.89-.68,2.88,1.13"/><path class="d" d="M24.85,15.32c.01-.38,.13-.77,.32-1.08,.89-1.48,2.89-.68,2.88,1.13"/></g><path d="M10.67,19.87c2.64,2.28,5.84,3.87,9.3,4.39s6.8,.03,9.93-1.34c1.87-.82,3.56-1.97,5.08-3.32,.72-.65-.34-1.7-1.06-1.06-4.76,4.26-11.51,5.65-17.47,3.21-1.72-.7-3.31-1.72-4.72-2.93-.73-.63-1.79,.43-1.06,1.06h0Z"/></svg>