<?xml version="1.0" encoding="UTF-8"?><svg id="a" xmlns="http://www.w3.org/2000/svg" viewBox="0 0 45.92 45.92"><defs><style>.b{fill:none;stroke:#000;stroke-linecap:round;stroke-miterlimit:10;stroke-width:1.5px;}.c{fill:#69adff;}.d{fill:#fff;}.e{fill:#419cf7;}.f{fill:#74dfff;}</style></defs><path class="c" d="M45.3,22.96c0,5.17-8.25,7.31-11.64,10.7s-5.53,11.64-10.7,11.64-7.31-8.25-10.7-11.64C8.87,30.27,.62,28.13,.62,22.96s8.25-7.31,11.64-10.7C15.65,8.87,17.78,.62,22.96,.62s7.31,8.25,10.7,11.64c3.39,3.39,11.64,5.53,11.64,10.7Z"/><circle class="e" cx="36.18" cy="22.34" r="2.68"/><circle class="e" cx="11.19" cy="23.32" r="2.68"/><g><g><ellipse class="d" cx="19.49" cy="19.99" rx="2.9" ry="4.21"/><ellipse cx="20.55" cy="21.94" rx="1.28" ry="1.89"/><ellipse class="d" cx="25.84" cy="18.92" rx="2.9" ry="4.21"/><ellipse cx="26.9" cy="20.87" rx="1.28" ry="1.89"/><circle class="f" cx="29.5" cy="21.53" r="1.7"/><path class="b" d="M19.69,28.68s2.87-6.15,11.89-3.69"/></g><circle cx="23.17" cy="22.64" r="1.35"/></g></svg>