<?xml version="1.0" encoding="UTF-8"?><svg id="a" xmlns="http://www.w3.org/2000/svg" viewBox="0 0 45.92 45.92"><defs><style>.b{fill:#fff;}.c{fill:#10e88d;}.d{fill:#23c981;}.e{fill:none;stroke:#000;stroke-linecap:round;stroke-linejoin:round;stroke-width:1.5px;}</style></defs><path class="c" d="M37.57,23.02l1.7-1.68c5.09-5.05,5.96-12.42,1.94-16.47-4.02-4.05-11.4-3.24-16.49,1.81l-1.69,1.68h0l-1.68-1.7C16.29,1.57,8.92,.7,4.86,4.72,.81,8.73,1.62,16.12,6.67,21.21l1.68,1.69h0l-1.7,1.68c-5.09,5.05-5.96,12.42-1.94,16.47,4.02,4.05,11.4,3.24,16.49-1.81l1.69-1.68h0l1.68,1.7c5.05,5.09,12.42,5.96,16.47,1.94,4.05-4.02,3.24-11.4-1.81-16.49l-1.68-1.69Z"/><g><circle class="d" cx="33.71" cy="23.7" r="2.77"/><circle class="d" cx="13.24" cy="24.23" r="2.77"/><g><ellipse class="b" cx="20.06" cy="22.05" rx="4.04" ry="2.79" transform="translate(-2.07 42.02) rotate(-89.77)"/><ellipse cx="20.98" cy="20.85" rx="1.81" ry="1.23" transform="translate(.05 41.74) rotate(-89.77)"/><ellipse class="b" cx="25.87" cy="21.64" rx="4.04" ry="2.79" transform="translate(4.13 47.42) rotate(-89.77)"/><ellipse cx="26.79" cy="20.43" rx="1.81" ry="1.23" transform="translate(6.25 47.14) rotate(-89.77)"/><circle cx="22.97" cy="24.46" r="1.35"/></g></g><line class="e" x1="19.19" y1="27.74" x2="26.68" y2="27.74"/></svg>