<?xml version="1.0" encoding="UTF-8"?><svg id="a" xmlns="http://www.w3.org/2000/svg" viewBox="0 0 45.92 45.92"><defs><style>.b{fill:#fff;}.c{fill:#ababff;}.d{fill:#7672cc;}</style></defs><g><circle class="c" cx="23.15" cy="22.96" r="18.71"/><path class="d" d="M41.53,36.32c-1.55,2.72-12.88,.7-23.72-5.47C6.97,24.68,.73,16.69,2.28,13.97s11.59,.07,22.43,6.25c10.84,6.17,18.37,13.38,16.82,16.1Z"/><ellipse class="c" cx="23.03" cy="23.17" rx="4.8" ry="19.12" transform="translate(-8.5 31.72) rotate(-60.34)"/></g><path d="M27.41,24.5c0,1.37-1.1,2.48-2.47,2.48s-2.47-1.11-2.47-2.48,1.1-2.48,2.47-2.48,2.47,1.11,2.47,2.48Z"/><g><ellipse class="b" cx="20.79" cy="18.49" rx="2.08" ry="3.02"/><path d="M22.4,17.59c0,.75-.41,1.35-.92,1.35-.51,0-.92-.61-.92-1.35s.41-1.35,.92-1.35,.92,.61,.92,1.35Z"/><ellipse class="b" cx="25.13" cy="18.16" rx="2.08" ry="3.02"/><ellipse cx="25.82" cy="17.26" rx=".92" ry="1.35"/><circle cx="22.98" cy="20.28" r="1.21"/></g></svg>