<?xml version="1.0" encoding="UTF-8"?><svg id="a" xmlns="http://www.w3.org/2000/svg" viewBox="0 0 45.92 45.92"><defs><style>.b{fill:#696969;}.c{fill:#fff;}.d{fill:#5c5c5c;}.e{fill:none;stroke:#000;stroke-linecap:round;stroke-linejoin:round;stroke-width:1.5px;}</style></defs><g><path class="b" d="M44.18,22.96c0,.98-5.7,1.5-5.85,2.44s5.11,3.21,4.81,4.12-5.88-.35-6.31,.51,3.86,4.63,3.3,5.41-5.48-2.15-6.16-1.47,2.25,5.59,1.47,6.16-4.55-3.74-5.41-3.3,.42,6.01-.51,6.31-3.16-4.96-4.12-4.81-1.46,5.85-2.44,5.85-1.5-5.7-2.44-5.85-3.21,5.11-4.12,4.81,.35-5.88-.51-6.31-4.63,3.86-5.41,3.3,2.15-5.48,1.47-6.16-5.59,2.25-6.16,1.47,3.74-4.55,3.3-5.41-6.01,.42-6.31-.51,4.96-3.16,4.81-4.12-5.85-1.46-5.85-2.44,5.7-1.5,5.85-2.44-5.11-3.21-4.81-4.12,5.88,.35,6.31-.51-3.86-4.63-3.3-5.41,5.48,2.15,6.16,1.47-2.25-5.59-1.47-6.16,4.55,3.74,5.41,3.3-.42-6.01,.51-6.31,3.16,4.96,4.12,4.81,1.46-5.85,2.44-5.85,1.5,5.7,2.44,5.85,3.21-5.11,4.12-4.81-.35,5.88,.51,6.31,4.63-3.86,5.41-3.3-2.15,5.48-1.47,6.16,5.59-2.25,6.16-1.47-3.74,4.55-3.3,5.41,6.01-.42,6.31,.51-4.96,3.16-4.81,4.12,5.85,1.46,5.85,2.44Z"/><ellipse class="c" cx="19.43" cy="19.1" rx="3.12" ry="4.25"/><ellipse cx="17.91" cy="18.06" rx="1.38" ry="1.9"/><ellipse class="c" cx="24.93" cy="18.35" rx="3.12" ry="4.25"/><ellipse cx="23.63" cy="18.2" rx="1.38" ry="1.9"/><circle class="d" cx="34.23" cy="20.95" r="2.77"/><circle class="d" cx="12.6" cy="25.52" r="2.77"/><path class="b" d="M28.12,13.05s-3.66,3.7-6.1,3.7c-.03,0,.83-2.44,.83-2.44l5.27-1.26Z"/><path class="b" d="M22.03,16.76s-3.56-1.67-5.56-3.07,4.88-.71,4.88-.71l.68,3.78Z"/><circle cx="22.29" cy="22.1" r="1.35"/></g><line class="e" x1="17.48" y1="26.68" x2="28.41" y2="22.81"/></svg>