<?xml version="1.0" encoding="UTF-8"?><svg id="a" xmlns="http://www.w3.org/2000/svg" viewBox="0 0 45.92 45.92"><defs><style>.b{fill:#fff;}.c{fill:#f50357;}.d{fill:#fe4081;}.e{fill:none;stroke:#000;stroke-linecap:round;stroke-linejoin:round;stroke-width:1.5px;}</style></defs><path class="d" d="M44.05,22.96c0,1.97-5.8,3-6.38,4.78s3.46,6.08,2.35,7.62-6.42-1.01-7.97,.12-.73,6.95-2.57,7.55-4.55-4.6-6.52-4.6-4.74,5.17-6.52,4.6-1.04-6.43-2.57-7.55-6.84,1.43-7.97-.12,2.95-5.77,2.35-7.62-6.38-2.81-6.38-4.78,5.8-3,6.38-4.78-3.46-6.08-2.35-7.62,6.42,1.01,7.97-.12,.73-6.95,2.57-7.55,4.55,4.6,6.52,4.6,4.74-5.17,6.52-4.6,1.04,6.43,2.57,7.55,6.84-1.43,7.97,.12-2.95,5.77-2.35,7.62,6.38,2.81,6.38,4.78Z"/><ellipse class="b" cx="19.43" cy="19.1" rx="3.12" ry="4.25"/><ellipse cx="19.51" cy="19.03" rx="1.38" ry="1.9"/><ellipse class="b" cx="24.99" cy="18.6" rx="3.12" ry="4.25"/><ellipse cx="25.07" cy="18.53" rx="1.38" ry="1.9"/><circle class="c" cx="34.22" cy="20.95" r="2.77"/><circle class="c" cx="12.6" cy="25.52" r="2.77"/><path class="d" d="M28.18,13.3s-3.63,3.6-6.07,3.6c-.03,0,.8-2.34,.8-2.34l5.27-1.26Z"/><path class="d" d="M22.13,16.89s-3.67-1.8-5.67-3.2,4.88-.71,4.88-.71l.78,3.91Z"/><circle cx="22.29" cy="22.1" r="1.35"/><path class="e" d="M19.42,29.92c-.68-2.4,1.4-4.59,3.67-4.97,2.28-.38,4.3,.98,5.34,2.94"/></svg>