<?xml version="1.0" encoding="UTF-8"?><svg id="a" xmlns="http://www.w3.org/2000/svg" viewBox="0 0 45.92 45.92"><defs><style>.b{fill:#f63771;}.c{fill:#ffb000;}.d{fill:#fff;}.e{fill:#ffd400;}</style></defs><path class="e" d="M41.47,41.59c-4.22,4.19-13.06-1.82-18.57-1.84-5.51-.02-14.39,5.94-18.58,1.72-4.19-4.22,1.82-13.06,1.84-18.57S.23,8.52,4.44,4.33c4.22-4.19,13.06,1.82,18.57,1.84S37.4,.23,41.59,4.44s-1.82,13.06-1.84,18.57,5.94,14.39,1.72,18.58Z"/><g><g><ellipse class="d" cx="19.6" cy="20.72" rx="4.03" ry="2.78" transform="translate(-1.18 40.26) rotate(-89.82)"/><ellipse cx="20.6" cy="22.6" rx="1.81" ry="1.23" transform="translate(-2.06 43.13) rotate(-89.82)"/><ellipse class="d" cx="25.4" cy="20.3" rx="4.03" ry="2.78" transform="translate(5.01 45.64) rotate(-89.82)"/><ellipse cx="26.4" cy="22.18" rx="1.81" ry="1.23" transform="translate(4.14 48.51) rotate(-89.82)"/><ellipse cx="22.94" cy="23.8" rx="1.36" ry="1.33" transform="translate(-9.55 17.71) rotate(-35.44)"/><g><path d="M19.74,26.47c.03-.3,.18-.62,.56-.69,.59-.1,1.18,.29,1.74,.34,.65,.07,1.33-.16,1.93-.44,.46-.21,.96-.47,1.46-.43,.54,.04,.9,.43,1.04,.84,.33,.97-.39,2.15-1.54,2.71-1.15,.56-2.6,.52-3.64,0-.9-.45-1.5-1.24-1.56-2.13,0-.07,0-.14,0-.22Z"/><path class="b" d="M24.93,28.81c.49-.24,.9-.59,1.18-.99-.08-.1-.17-.2-.27-.28-.45-.35-1.18-.48-1.74-.25-.35,.15-.63,.42-1.02,.45-.21,.01-.42-.06-.63-.11-.53-.13-1.19-.1-1.51,.26-.15,.17-.19,.38-.18,.59,.16,.12,.34,.24,.53,.33,1.04,.52,2.49,.55,3.64,0Z"/></g></g><circle class="c" cx="34.83" cy="24.34" r="2.77"/><circle class="c" cx="11.56" cy="22.88" r="2.77"/></g></svg>